<?xml version="1.0" encoding="UTF-8" standalone="no"?>
<!-- Created with Inkscape (http://www.inkscape.org/) -->

<svg
   width="80.772919mm"
   height="103.9381mm"
   viewBox="0 0 80.772919 103.9381"
   version="1.1"
   id="svg5"
   inkscape:version="1.1.2 (b8e25be833, 2022-02-05)"
   sodipodi:docname="logo.svg"
   xmlns:inkscape="http://www.inkscape.org/namespaces/inkscape"
   xmlns:sodipodi="http://sodipodi.sourceforge.net/DTD/sodipodi-0.dtd"
   xmlns="http://www.w3.org/2000/svg"
   xmlns:svg="http://www.w3.org/2000/svg">
  <sodipodi:namedview
     id="namedview7"
     pagecolor="#ffffff"
     bordercolor="#666666"
     borderopacity="1.0"
     inkscape:pageshadow="2"
     inkscape:pageopacity="0.0"
     inkscape:pagecheckerboard="0"
     inkscape:document-units="mm"
     showgrid="false"
     fit-margin-top="0"
     fit-margin-left="0"
     fit-margin-right="0"
     fit-margin-bottom="0"
     inkscape:zoom="1.4396184"
     inkscape:cx="157.33336"
     inkscape:cy="247.63507"
     inkscape:window-width="1920"
     inkscape:window-height="1001"
     inkscape:window-x="-9"
     inkscape:window-y="-9"
     inkscape:window-maximized="1"
     inkscape:current-layer="layer1" />
  <defs
     id="defs2" />
  <g
     inkscape:label="Warstwa 1"
     inkscape:groupmode="layer"
     id="layer1"
     transform="translate(-60.696463,-36.616343)">
    <g
       id="g65036"
       transform="translate(107.82141,32.385336)"
       inkscape:export-filename="C:\Users\mabe\OneDrive\BRIBELLA\LOGO\logo_czyste_v.png"
       inkscape:export-xdpi="96"
       inkscape:export-ydpi="96">
      <path
         style="fill:#9fb0bb;stroke-width:0.264583"
         d="m 5.8319239,36.070618 c -0.47704,-0.235127 -0.81552,-0.479319 -0.75219,-0.542652 0.13019,-0.130188 1.75182,0.662853 1.75182,0.856708 0,0.174241 -0.0247,0.166486 -0.99963,-0.314056 z"
         id="path41606"
         inkscape:export-filename="C:\Users\mabe\OneDrive\BRIBELLA\LOGO\kot.png"
         inkscape:export-xdpi="96"
         inkscape:export-ydpi="96" />
      <path
         style="fill:#9fb0bb;stroke-width:0.264583"
         d="m 11.449314,40.189448 c -0.57523,-0.595773 -1.7955001,-1.622166 -2.7117101,-2.280875 -0.9162,-0.658709 -1.61114,-1.252334 -1.54431,-1.319168 0.31359,-0.313592 4.0252601,2.619021 4.9391401,3.902451 0.76282,1.071277 0.55393,0.978805 -0.68312,-0.302408 z"
         id="path41604"
         inkscape:export-filename="C:\Users\mabe\OneDrive\BRIBELLA\LOGO\kot.png"
         inkscape:export-xdpi="96"
         inkscape:export-ydpi="96" />
      <path
         style="fill:#0c1c39;fill-opacity:1;stroke-width:0.264583"
         d="m 5.9035089,106.87936 c -5.09767003,-1.07937 -9.37845,-3.95214 -12.40952,-8.32784 -0.59633,-0.86087 -1.08423,-1.79748 -1.08423,-2.08136 0,-0.61773 0.0729,-0.6037 3.96875,0.76347 2.45454,0.86137 3.15429997,0.99001 6.00775,1.1044 2.70823,0.10857 3.63804,0.0351 5.75937,-0.4551 6.6477701,-1.53616 11.5835001,-5.90291 13.4886401,-11.93369 1.39589,-4.41872 1.08691,-8.04147 -1.0797,-12.65962 -1.29296,-2.75596 -1.34804,-2.96715 -1.06407,-4.0801 0.13668,-0.53568 0.50304,-0.88682 1.30516,-1.25096 2.54747,-1.15647 5.1466,-0.14626 7.87791,3.06192 4.27107,5.01678 5.85146,11.23297 4.50924,17.73631 -2.56534,12.42964 -15.03671,20.71479 -27.2793001,18.12257 z"
         id="path41602"
         inkscape:export-filename="C:\Users\mabe\OneDrive\BRIBELLA\LOGO\kot.png"
         inkscape:export-xdpi="96"
         inkscape:export-ydpi="96" />
      <path
         style="fill:#9fb0bb;stroke-width:0.264583"
         d="m -4.6469961,107.92187 c -11.2301099,-1.18446 -21.0241599,-5.7658 -28.7713499,-13.45829 -4.14759,-4.11831 -5.92432,-6.52245 -8.32421,-11.26367 -5.907271,-11.67043 -6.933206,-23.48156 -3.170733,-36.50328 1.208353,-4.182064 4.085353,-10.313187 6.658953,-14.19079 0.64078,-0.965457 1.16506,-1.84191 1.16506,-1.947675 0,-0.105767 -0.42844,-0.111927 -0.95209,-0.01368 -1.2765,0.239472 -0.9644,-0.214897 0.54304,-0.790593 0.951,-0.363191 1.39455,-0.780222 2.34377,-2.203651 1.56537,-2.347399 1.88154,-3.017216 2.45229,-5.195268 1.10127,-4.202512 0.45994,-9.389561 -1.65963,-13.4231026 -0.52176,-0.992906 -0.87704,-1.876889 -0.78953,-1.964406 0.0875,-0.08752 1.14582,0.145707 2.35178,0.518275 6.21749,1.920818 9.69713,2.434665 16.34787,2.414125 l 5.42396,-0.01676 6.2177099,-1.60448 c 4.53383997,-1.169958 6.92528,-1.935302 8.83045,-2.826048 1.43701,-0.671863 2.81227,-1.221569 3.05613,-1.221569 0.41856,0 0.74565,0.504507 2.35639,3.6345 1.5090101,2.9323146 1.9121501,8.7226466 0.8853601,12.7162626 -0.7313901,2.844649 -2.5644401,6.362033 -4.4245001,8.490047 -0.81235,0.929373 -1.38015,1.768555 -1.26177,1.86485 0.11837,0.09629 0.87007,0.396076 1.67044,0.666184 2.2779,0.768752 5.2924101,2.362869 6.8115401,3.602032 1.69594,1.383403 1.65518,1.705755 -0.051,0.403389 -2.49548,-1.904844 -7.4329001,-4.125182 -9.1732601,-4.125182 -0.56937,0 -3.01122003,1.785077 -3.01122003,2.201312 0,0.153553 0.64488003,0.442573 1.43308003,0.642268 0.78819,0.199691 1.67789,0.534548 1.9771,0.744124 0.72507,0.50786 0.45672,0.480452 -1.21745,-0.124343 -0.76944,-0.277961 -1.94519,-0.580014 -2.61278003,-0.671224 -1.13852,-0.155554 -1.36496,-0.07286 -3.65122997,1.333325 -2.60402,1.601631 -6.44816,4.868555 -8.7237299,7.413829 -2.64315,2.956419 -6.10642,8.749009 -7.57518,12.670079 -2.79123,7.4516 -3.30955,16.05423 -1.41865,23.54545 2.82993,11.21136 9.57259,20.62831 19.4916499,27.22249 1.04755997,0.69641 1.83710997,1.37548 1.75456997,1.50903 -0.17435,0.28211 -2.02455997,0.26445 -4.98280997,-0.0476 z"
         id="path1101"
         inkscape:export-filename="C:\Users\mabe\OneDrive\BRIBELLA\LOGO\kot.png"
         inkscape:export-xdpi="96"
         inkscape:export-ydpi="96" />
      <path
         style="fill:#f69103;stroke-width:0.264583"
         d="m -19.614189,36.620332 c -3.22225,-0.593333 -4.95879,-1.095618 -7.92997,-2.293694 l -2.27622,-0.917847 -2.38743,0.560501 c -1.31308,0.308277 -3.22138,0.977712 -4.24066,1.487636 -1.92547,0.963273 -2.66028,1.044797 -1.37106,0.152114 2.37412,-1.643891 6.18637,-2.723846 10.27711,-2.911356 3.51528,-0.161134 6.11571,0.302437 9.21634,1.642965 1.15742,0.500403 2.2043,0.848092 2.32638,0.772641 0.7131,-0.440719 -0.30698,-1.094999 -3.33442,-2.13869 -2.83818,-0.978445 -6.47304,-1.377143 -9.77798,-1.072518 l -2.75833,0.254241 -1.48968,-0.988793 c -0.81933,-0.543838 -1.4459,-1.120135 -1.39239,-1.280663 0.295,-0.885015 6.0916,-1.324419 9.40742,-0.713118 3.52572,0.649999 6.92758,1.993424 9.02344,3.563432 1.00975,0.756401 1.60224,0.873572 1.60224,0.316857 0,-0.500584 -2.97938,-2.401943 -5.04925,-3.222289 -3.92575,-1.555885 -7.8803,-2.129213 -11.86054,-1.719532 -1.51502,0.155937 -2.81262,0.225478 -2.88357,0.15453 -0.46323,-0.463222 4.63963,-5.903992 8.2961,-8.84547 5.56447,-4.476386 12.59519,-8.250559 18.6410199,-10.0067116 4.48377,-1.302418 8.93798,-2.18968 12.51569,-2.493074 4.23555,-0.35918 4.09449,-0.417379 4.90669,2.024387 1.6823001,5.0576026 1.2194501,10.7857806 -1.26999,15.7173286 -0.84736,1.678614 -3.73423,5.430104 -4.36481,5.672081 -0.21286,0.08168 -1.13644,0.02373 -2.0524,-0.128772 -2.98548003,-0.497073 -9.48477,0.274545 -10.50976,1.247753 -0.66259,0.629113 0.34248,0.742323 1.88921,0.212802 1.0805,-0.369903 2.23661,-0.480877 5.07927,-0.487553 4.03841,-0.0095 4.48479,0.171373 3.01333,1.22088 -0.81983003,0.584737 -1.10595003,0.622652 -4.70932,0.624052 -2.71254,0.0011 -4.01918,0.105124 -4.46017,0.35524 -1.03691,0.588095 -0.2929,0.830249 1.68436,0.548219 1.93189,-0.275561 3.83415,-0.115064 3.83415,0.323493 0,0.140737 -0.62508,0.530807 -1.38907,0.866823 -3.94735,1.736121 -11.2558999,2.41355 -16.2057299,1.502105 z"
         id="path45360"
         inkscape:export-filename="C:\Users\mabe\OneDrive\BRIBELLA\LOGO\kot.png"
         inkscape:export-xdpi="96"
         inkscape:export-ydpi="96" />
      <path
         style="fill:#0c1c39;stroke-width:0.264583"
         d="m 6.4472709,106.03215 c -4.13325,-0.89072 -7.44558003,-2.77068 -10.37553,-5.8888 -1.65818,-1.76466 -2.77683,-3.38852 -2.51481,-3.65053 0.0623,-0.0623 1.40706,0.31967 2.98837,0.84881 2.48249997,0.8307 3.31582997,0.98111 6.10253,1.10146 2.73985,0.11832 3.61624,0.0495 5.8012,-0.45537 8.7548501,-2.02306 14.6842201,-9.04128 14.7613201,-17.47205 0.0262,-2.86536 -0.3757,-4.47948 -1.98486,-7.97146 -1.08487,-2.35424 -1.25369,-2.92295 -1.03694,-3.49305 0.63723,-1.67605 3.51918,-1.9273 5.81633,-0.50708 2.57648,1.59291 5.78023,6.43464 6.78358,10.2518 1.68884,6.42507 -0.19767,14.16192 -4.75572,19.50393 -5.35549,6.2766 -13.98916,9.36935 -21.5854701,7.73234 z M -19.614189,36.620332 c -3.22225,-0.593333 -4.95879,-1.095618 -7.92997,-2.293694 l -2.27622,-0.917847 -2.38743,0.560501 c -1.31308,0.308277 -3.22138,0.977712 -4.24066,1.487636 -1.92547,0.963273 -2.66028,1.044797 -1.37106,0.152114 2.37412,-1.643891 6.18637,-2.723846 10.27711,-2.911356 3.51528,-0.161134 6.11571,0.302437 9.21634,1.642965 1.15742,0.500403 2.2043,0.848092 2.32638,0.772641 0.7131,-0.440719 -0.30698,-1.094999 -3.33442,-2.13869 -2.83818,-0.978445 -6.47304,-1.377143 -9.77798,-1.072518 l -2.75833,0.254241 -1.48968,-0.988793 c -0.81933,-0.543838 -1.4459,-1.120135 -1.39239,-1.280663 0.295,-0.885015 6.0916,-1.324419 9.40742,-0.713118 3.52572,0.649999 6.92758,1.993424 9.02344,3.563432 1.00975,0.756401 1.60224,0.873572 1.60224,0.316857 0,-0.500584 -2.97938,-2.401943 -5.04925,-3.222289 -3.92575,-1.555885 -7.8803,-2.129213 -11.86054,-1.719532 -1.51502,0.155937 -2.81262,0.225478 -2.88357,0.15453 -0.46323,-0.463222 4.63963,-5.903992 8.2961,-8.84547 5.56447,-4.476386 12.59519,-8.250559 18.6410199,-10.0067116 4.48377,-1.302418 8.93798,-2.18968 12.51569,-2.493074 4.23555,-0.35918 4.09449,-0.417379 4.90669,2.024387 1.6823001,5.0576026 1.2194501,10.7857806 -1.26999,15.7173286 -0.84736,1.678614 -3.73423,5.430104 -4.36481,5.672081 -0.21286,0.08168 -1.13644,0.02373 -2.0524,-0.128772 -2.98548003,-0.497073 -9.48477,0.274545 -10.50976,1.247753 -0.66259,0.629113 0.34248,0.742323 1.88921,0.212802 1.0805,-0.369903 2.23661,-0.480877 5.07927,-0.487553 4.03841,-0.0095 4.48479,0.171373 3.01333,1.22088 -0.81983003,0.584737 -1.10595003,0.622652 -4.70932,0.624052 -2.71254,0.0011 -4.01918,0.105124 -4.46017,0.35524 -1.03691,0.588095 -0.2929,0.830249 1.68436,0.548219 1.93189,-0.275561 3.83415,-0.115064 3.83415,0.323493 0,0.140737 -0.62508,0.530807 -1.38907,0.866823 -3.94735,1.736121 -11.2558999,2.41355 -16.2057299,1.502105 z m 16.9658499,-9.85666 c 2.91069997,-1.287407 3.77918,-2.754714 2.31305997,-3.907964 -0.78136997,-0.614622 -2.71654997,-0.744651 -3.98198997,-0.26756 -1.04068,0.39235 -2.46462,1.831157 -2.46462,2.490345 0,1.092386 1.09191,2.002364 2.67834,2.232065 0.0906,0.01312 0.74549,-0.232974 1.45521,-0.546886 z M -17.960539,25.595156 c 0.7323,-0.826013 0.74348,-1.176004 0.0651,-2.038408 -1.31086,-1.666478 -4.76989,-2.360044 -6.00119,-1.203291 -0.66492,0.62466 -0.7878,1.686319 -0.27323,2.360615 0.3458,0.453131 1.75363,1.243423 2.83415,1.590964 1.12843,0.362952 2.72098,0.028 3.37515,-0.70988 z"
         id="path1097"
         inkscape:export-filename="C:\Users\mabe\OneDrive\BRIBELLA\LOGO\kot.png"
         inkscape:export-xdpi="96"
         inkscape:export-ydpi="96" />
    </g>
  </g>
</svg>
