<?xml version="1.0" standalone="no"?>
<!DOCTYPE svg PUBLIC "-//W3C//DTD SVG 20010904//EN"
 "http://www.w3.org/TR/2001/REC-SVG-20010904/DTD/svg10.dtd">
<svg version="1.0" xmlns="http://www.w3.org/2000/svg"
 width="640.000000pt" height="723.000000pt" viewBox="0 0 640.000000 723.000000"
 preserveAspectRatio="xMidYMid meet">

<g transform="translate(0.000000,723.000000) scale(0.100000,-0.100000)"
fill="#000000" stroke="none">
<path d="M6220 7133 c-41 -48 -147 -169 -235 -268 -88 -99 -178 -202 -201
-228 l-40 -48 -518 0 -517 1 -82 87 c-46 49 -141 151 -212 228 -71 77 -166
178 -212 225 l-83 85 0 -662 c0 -541 -2 -663 -13 -663 -7 0 -53 14 -103 30
-121 42 -293 84 -449 111 -114 20 -165 23 -405 23 -242 0 -291 -3 -405 -23
-464 -81 -826 -232 -1185 -494 -219 -161 -474 -423 -619 -636 -23 -33 -41 -62
-41 -65 0 -3 113 -7 252 -8 l252 -3 34 -110 c88 -290 146 -465 153 -458 3 5
49 135 100 290 l94 283 200 0 200 0 64 -228 c81 -285 102 -354 107 -349 4 3
33 105 79 272 50 182 84 297 88 301 2 2 117 3 256 2 l252 -3 -240 -715 -240
-715 -224 -3 -224 -2 -62 197 c-34 109 -64 199 -66 202 -5 5 -43 -79 -116
-256 -49 -120 -56 -132 -83 -137 -15 -3 -109 -6 -207 -6 l-179 0 -16 38 c-47
111 -164 441 -304 862 -87 261 -164 488 -170 505 l-11 30 -45 -70 c-60 -93
-184 -347 -227 -465 -124 -334 -181 -655 -180 -1005 2 -619 201 -1193 579
-1665 88 -109 275 -296 384 -384 397 -317 885 -521 1397 -581 149 -17 497 -20
659 -5 494 47 944 199 1319 446 293 193 593 494 786 789 139 212 266 475 343
712 21 64 15 102 -25 147 -84 97 -302 108 -381 20 -9 -11 -42 -66 -73 -124
-74 -137 -174 -304 -202 -338 -22 -26 -23 -26 -34 -7 -19 34 -165 172 -241
228 -40 29 -105 73 -145 96 l-72 43 25 66 c55 142 89 243 134 397 l48 160 462
3 463 2 -6 143 c-20 443 -162 920 -383 1282 -23 40 -44 77 -46 82 -2 6 121
101 272 212 151 110 348 255 438 321 l162 119 0 886 c0 487 -1 885 -2 885 -2
0 -37 -39 -78 -87z m-1465 -1147 c39 -15 88 -39 110 -53 61 -41 145 -124 166
-165 19 -37 19 -37 -3 -52 -33 -23 -141 -21 -214 4 -161 56 -354 223 -330 285
10 28 177 16 271 -19z m1199 24 c14 -5 26 -14 26 -19 0 -5 -18 -32 -40 -60
-121 -153 -365 -267 -494 -231 -40 11 -46 15 -40 34 27 89 152 198 284 247 98
37 211 49 264 29z m-2109 -1204 c33 -9 106 -31 161 -48 l102 -30 6 -49 c9 -70
6 -429 -4 -429 -4 0 -40 18 -79 40 -121 68 -209 94 -331 94 -94 1 -111 -2
-165 -27 -149 -70 -209 -205 -155 -350 29 -76 79 -130 158 -169 62 -31 73 -33
172 -33 126 0 207 23 320 90 41 24 77 40 80 35 4 -6 7 -95 8 -199 l2 -190 -30
-21 c-183 -130 -585 -170 -821 -81 -31 12 -84 38 -117 59 -138 83 -215 175
-261 311 -23 69 -25 91 -26 246 0 148 3 180 23 249 37 129 105 250 188 332
101 102 207 151 404 188 56 10 306 -2 365 -18z m1559 -178 l-5 -203 -367 -5
-367 -5 -3 -62 -3 -63 324 0 c178 0 345 -3 370 -6 l46 -7 3 -126 c2 -69 2
-145 0 -168 l-3 -43 -369 0 -370 0 -2 -272 -3 -273 -247 -3 -248 -2 0 713 c0
393 3 717 7 720 3 4 284 7 624 7 l618 0 -5 -202z m-624 -1367 c0 -55 -143
-485 -171 -515 -6 -6 -29 -1 -61 13 -169 74 -318 133 -432 171 l-128 42 5 47
c2 25 11 94 18 153 l13 107 101 4 c55 1 225 4 378 5 l277 2 0 -29z m-3374 13
l51 -6 13 -57 c15 -70 109 -352 149 -449 l30 -72 -82 -54 c-142 -93 -232 -168
-325 -270 -24 -26 -45 -46 -47 -44 -16 17 -100 249 -136 373 -40 139 -99 479
-99 567 0 4 66 9 148 11 81 1 170 4 197 5 28 1 73 -1 101 -4z m918 -2 c5 -9
36 -235 36 -267 0 -17 -11 -25 -57 -39 -127 -40 -314 -111 -412 -157 -57 -27
-108 -49 -112 -49 -25 0 -190 485 -173 511 7 11 711 12 718 1z m751 -82 l0
-85 -45 -2 c-102 -6 -253 -26 -387 -52 l-143 -28 -5 31 c-9 59 -25 188 -25
207 0 19 9 19 303 17 l302 -3 0 -85z m801 18 c-12 -130 -27 -200 -42 -194 -63
24 -470 86 -566 86 l-48 0 0 90 0 90 331 0 332 0 -7 -72z m-353 -273 c50 -9
138 -25 195 -37 l102 -21 0 -38 c0 -63 -85 -433 -111 -481 -8 -14 -17 -18 -37
-14 -60 13 -244 35 -344 42 l-108 7 0 286 0 286 105 -7 c58 -4 147 -14 198
-23z m-443 -259 l1 -283 -108 -7 c-60 -4 -157 -14 -217 -21 -61 -8 -111 -13
-112 -12 -14 14 -107 416 -116 502 -3 29 -2 30 72 47 116 28 317 56 402 57
l77 1 1 -284z m-672 52 c13 -62 39 -176 58 -253 19 -76 33 -144 30 -151 -3 -7
-24 -15 -48 -19 -45 -8 -216 -67 -302 -104 -27 -12 -55 -20 -61 -17 -19 7
-263 432 -253 441 10 9 174 87 233 110 94 38 286 103 305 104 12 1 21 -27 38
-111z m1678 66 c198 -66 454 -177 454 -197 0 -24 -194 -373 -237 -426 l-20
-24 -99 42 c-79 34 -212 81 -331 116 -8 3 -4 29 13 92 27 98 80 325 90 391 4
23 10 42 15 42 5 0 57 -16 115 -36z m-2327 -331 c24 -49 77 -146 118 -218 42
-71 77 -133 79 -136 2 -4 -22 -23 -54 -44 -79 -52 -221 -198 -261 -268 -18
-32 -38 -56 -45 -54 -39 13 -316 385 -316 426 0 25 92 141 157 197 103 90 241
184 268 184 6 0 30 -39 54 -87z m3037 -4 c120 -78 298 -247 310 -293 5 -22 -4
-41 -60 -114 -81 -104 -273 -312 -289 -312 -7 0 -25 21 -42 48 -41 66 -134
161 -223 228 -43 32 -78 59 -80 60 -2 1 17 33 43 72 51 80 190 331 200 362 3
11 12 20 19 20 6 0 61 -32 122 -71z m-1718 -516 c2 -239 0 -303 -10 -303 -7
-1 -29 -3 -48 -6 -35 -5 -36 -4 -82 73 -97 163 -258 496 -246 508 9 10 234 33
303 32 l80 -2 3 -302z m420 288 c78 -10 146 -21 149 -25 10 -10 -11 -65 -82
-213 -62 -130 -164 -312 -193 -345 -16 -19 -63 -23 -121 -12 l-31 7 0 303 0
304 68 0 c37 0 131 -9 210 -19z m-938 -61 c0 -24 109 -259 186 -402 47 -88 84
-161 83 -162 -2 -2 -51 -19 -109 -39 l-105 -37 -98 102 c-103 106 -234 261
-306 363 -37 53 -40 61 -26 71 22 16 204 81 291 104 68 18 84 18 84 0z m1387
-39 c129 -43 253 -96 253 -108 0 -25 -263 -344 -372 -450 l-73 -72 -110 44
c-60 25 -116 45 -122 45 -19 0 -17 7 28 78 50 79 178 338 215 434 19 51 31 68
45 68 10 0 71 -18 136 -39z m-1814 -264 c81 -108 278 -338 329 -385 l25 -22
-74 -75 c-40 -41 -73 -81 -73 -89 0 -28 -20 -27 -97 4 -187 75 -523 293 -523
339 0 30 75 143 135 206 60 62 174 146 187 139 4 -3 45 -55 91 -117z m2266 44
c75 -51 169 -147 211 -218 l34 -56 -44 -40 c-60 -53 -245 -175 -350 -231 -71
-37 -223 -106 -236 -106 -2 0 -10 12 -18 28 -8 15 -37 51 -65 80 l-51 54 58
61 c126 133 278 314 352 421 17 25 35 46 41 46 6 0 36 -18 68 -39z m-984 -440
c163 -36 275 -83 369 -157 54 -43 94 -90 84 -100 -14 -13 -248 -64 -363 -78
-219 -27 -551 -20 -755 15 -88 15 -257 56 -277 68 -14 7 -9 16 31 59 91 97
247 170 441 207 108 20 347 13 470 -14z"/>
<path d="M380 2413 c-34 -26 -357 -280 -373 -294 -14 -11 31 -89 52 -89 11 0
90 16 177 35 86 20 162 34 167 32 6 -2 -48 -51 -119 -109 -72 -59 -135 -113
-142 -121 -9 -11 -8 -23 6 -55 16 -40 18 -42 52 -36 44 8 474 114 478 118 1 2
-5 20 -14 40 -22 45 -27 45 -185 2 -167 -45 -171 -46 -167 -36 2 4 60 53 131
109 70 56 127 104 127 108 0 22 -44 93 -58 93 -10 0 -84 -15 -167 -34 -132
-30 -169 -35 -154 -23 2 2 56 42 119 89 156 117 155 115 127 161 l-22 36 -35
-26z"/>
<path d="M5924 2295 c-9 -14 -14 -31 -11 -38 2 -7 61 -43 131 -80 69 -38 126
-72 126 -78 0 -5 -57 -9 -134 -9 -73 0 -154 -3 -180 -6 -42 -6 -49 -11 -66
-45 l-20 -38 219 -115 c120 -64 223 -116 229 -116 14 0 45 57 38 69 -3 4 -42
27 -88 51 -109 56 -170 92 -165 96 8 8 79 13 209 13 l138 1 26 41 c14 22 24
42 22 43 -34 22 -85 50 -249 135 -108 55 -199 101 -202 101 -4 0 -14 -11 -23
-25z"/>
<path d="M5741 1890 c-111 -47 -169 -180 -126 -284 39 -93 163 -184 264 -193
73 -7 119 8 165 53 46 45 66 83 73 143 11 94 -67 205 -184 262 -53 25 -153 35
-192 19z m138 -100 c108 -50 165 -131 141 -204 -28 -86 -125 -105 -221 -44
-66 42 -99 85 -105 136 -6 46 11 80 55 109 41 28 73 29 130 3z"/>
<path d="M530 1826 c-82 -29 -166 -100 -201 -169 -53 -104 4 -246 118 -294 58
-24 123 -17 201 22 111 56 182 149 182 237 0 73 -68 175 -137 204 -40 17 -116
17 -163 0z m151 -99 c22 -14 39 -38 48 -64 13 -37 13 -45 -3 -81 -49 -109
-210 -169 -285 -106 -82 69 -34 186 103 250 64 30 94 30 137 1z"/>
<path d="M5463 1559 l-21 -31 46 -41 c26 -22 72 -61 102 -87 109 -94 215 -181
231 -190 11 -6 22 0 42 26 l28 34 -193 160 c-106 88 -197 160 -203 160 -5 0
-20 -14 -32 -31z"/>
<path d="M822 1487 c-119 -113 -216 -204 -254 -237 -21 -17 -38 -38 -38 -44 0
-7 13 -25 29 -40 l29 -28 78 72 78 72 23 -26 c29 -34 29 -43 -2 -146 -14 -46
-25 -94 -25 -107 0 -22 47 -93 61 -93 10 0 56 146 64 203 6 39 11 47 24 42 38
-16 89 -17 117 -2 78 41 115 128 81 193 -18 35 -175 204 -189 204 -5 0 -40
-28 -76 -63z m130 -113 c24 -26 46 -54 49 -63 9 -24 -18 -70 -45 -77 -31 -7
-51 4 -106 61 l-45 47 45 39 c25 21 48 39 52 39 4 0 27 -21 50 -46z"/>
<path d="M5301 1373 l-121 -128 30 -30 30 -29 47 46 48 46 150 -144 c82 -79
152 -144 156 -144 3 0 18 14 35 31 l29 31 -147 142 c-82 79 -148 149 -148 157
0 7 19 33 43 57 l42 43 -30 25 c-16 13 -33 24 -37 24 -3 0 -61 -57 -127 -127z"/>
<path d="M1131 1228 c-128 -161 -271 -352 -271 -362 0 -11 56 -58 180 -149
l65 -49 22 27 c13 14 23 30 23 34 0 5 -38 39 -85 76 -47 37 -85 69 -85 72 0 2
53 72 118 154 153 197 142 176 107 205 -38 30 -45 30 -74 -8z"/>
<path d="M5058 1151 l-33 -30 38 -108 c21 -59 61 -171 88 -247 27 -77 48 -143
47 -148 -2 -4 -30 10 -63 32 -33 22 -84 48 -113 57 -29 9 -51 19 -49 22 45 78
45 140 2 197 -37 49 -88 69 -135 55 -31 -9 -222 -112 -243 -131 -5 -5 218
-409 248 -448 4 -5 75 40 75 48 0 4 -20 44 -45 88 -25 44 -45 85 -45 91 0 14
33 31 60 31 12 0 66 -24 121 -52 l98 -53 53 28 c30 16 69 41 87 56 l34 28 -19
54 c-10 30 -19 56 -19 59 0 4 31 32 68 64 l68 57 54 -31 c31 -18 60 -28 67
-24 20 11 58 47 58 54 0 4 -33 26 -72 50 -40 24 -141 85 -225 136 -84 52 -157
94 -163 94 -5 0 -24 -13 -42 -29z m167 -148 c41 -27 75 -51 75 -55 0 -9 -76
-68 -88 -68 -5 0 -21 30 -34 68 -14 37 -28 75 -33 85 -11 25 -2 22 80 -30z
m-322 -145 c29 -39 17 -67 -50 -111 -32 -20 -63 -37 -69 -37 -18 0 -68 100
-56 112 26 26 109 67 131 65 13 -1 33 -14 44 -29z"/>
<path d="M1297 847 c-69 -112 -129 -210 -132 -218 -9 -24 99 -92 147 -92 21 0
38 -4 38 -8 0 -5 -5 -9 -11 -9 -5 0 -7 -5 -4 -10 10 -16 38 -12 31 5 -3 8 -1
15 4 15 6 0 10 -6 10 -14 0 -8 7 -16 15 -20 11 -4 15 1 15 19 0 14 5 25 10 25
6 0 10 -11 10 -25 0 -32 30 -33 85 -2 83 47 157 182 157 288 0 83 -18 109
-132 183 -55 36 -103 66 -108 66 -5 0 -65 -91 -135 -203z m209 57 c57 -33 74
-59 74 -109 0 -46 -40 -122 -93 -179 -44 -46 -82 -47 -155 -6 l-53 31 23 37
c13 21 52 86 88 144 36 59 66 107 68 108 2 0 23 -12 48 -26z"/>
<path d="M4410 763 c-74 -30 -139 -58 -143 -62 -4 -4 5 -41 21 -82 87 -218
155 -385 160 -391 4 -3 34 5 67 18 219 91 255 107 255 115 0 6 -17 52 -25 67
-2 3 -119 -41 -175 -67 -53 -24 -66 -26 -73 -8 -3 6 -14 35 -25 63 l-21 52 92
36 c126 50 122 46 107 90 -14 42 -7 43 -139 -10 -47 -19 -88 -34 -91 -34 -7 0
-44 99 -39 104 2 2 51 23 109 46 58 23 108 44 112 46 13 8 -25 74 -41 73 -9 0
-77 -26 -151 -56z"/>
<path d="M1935 706 c-101 -47 -165 -156 -165 -283 0 -126 66 -203 180 -211 50
-4 66 0 102 21 65 38 82 60 67 85 -7 12 -23 26 -36 33 -20 11 -27 9 -51 -13
-46 -43 -67 -50 -105 -35 -51 22 -71 60 -64 122 7 66 49 156 88 190 67 55 159
15 159 -70 0 -23 4 -25 50 -25 49 0 50 1 50 30 0 66 -40 124 -107 159 -54 27
-106 27 -168 -3z"/>
<path d="M3978 621 c-53 -14 -99 -29 -102 -32 -4 -4 111 -489 118 -496 7 -8
209 53 244 73 52 31 68 54 83 122 9 43 8 66 -5 122 -27 123 -74 193 -148 225
-49 20 -74 18 -190 -14z m191 -95 c26 -23 61 -136 61 -196 0 -65 -26 -95 -100
-114 -30 -7 -56 -12 -58 -11 -7 7 -82 291 -82 312 0 17 7 23 33 26 58 8 127 0
146 -17z"/>
<path d="M2274 389 c-76 -117 -142 -220 -146 -230 -7 -19 -3 -22 58 -34 28 -5
32 -3 49 35 29 63 34 65 126 44 90 -21 99 -31 99 -104 0 -45 2 -47 60 -56 l43
-7 -6 69 c-4 38 -14 141 -22 229 -24 258 -20 241 -70 254 -24 6 -46 11 -48 11
-2 0 -66 -95 -143 -211z m166 -20 c5 -52 8 -94 7 -95 -3 -3 -109 25 -115 30
-2 3 16 38 42 77 25 40 46 77 46 82 0 6 3 8 6 5 3 -3 9 -48 14 -99z"/>
<path d="M3615 551 c-116 -14 -130 -18 -133 -36 -3 -21 54 -485 61 -491 2 -2
37 1 78 6 41 5 118 15 173 21 l98 12 -6 41 c-4 22 -8 41 -9 42 -3 2 -150 -13
-208 -21 l-47 -7 -7 67 c-4 37 -5 68 -3 70 1 2 48 9 103 15 55 7 103 14 108
17 10 6 9 55 -2 72 -7 11 -23 11 -91 2 -138 -18 -137 -19 -143 37 -3 26 -2 50
1 54 4 4 48 12 97 18 141 17 135 15 135 60 0 40 0 40 -37 39 -21 -1 -96 -9
-168 -18z"/>
<path d="M2586 538 c-6 -23 -8 -68 -3 -68 1 -1 29 -3 62 -7 33 -3 62 -7 64 -9
2 -2 -5 -97 -16 -211 -16 -155 -18 -210 -10 -215 19 -12 77 -9 82 4 2 7 11 87
20 178 8 91 18 180 21 199 l5 34 70 -7 69 -6 0 45 c0 25 -3 45 -7 45 -26 0
-321 32 -334 36 -11 3 -19 -3 -23 -18z"/>
<path d="M3140 260 l0 -260 50 0 50 0 0 110 0 110 89 0 c50 0 93 4 96 10 3 5
3 25 -1 44 l-6 35 -92 3 -91 3 -3 58 -3 57 103 0 c57 0 108 4 115 8 7 4 11 24
10 45 l-2 37 -157 0 -158 0 0 -260z"/>
</g>
</svg>
